<?xml version="1.0" encoding="UTF-8"?>
<svg xmlns="http://www.w3.org/2000/svg" viewBox="0 0 533.5 544.3">
  <path fill="#4285F4" d="M533.5 278.4c0-17.4-1.6-34.1-4.7-50.2H272v95h146.5c-6.3 34-25.2 62.7-53.8 82v68h86.9c50.8-46.8 81.9-115.8 81.9-194.8z"/>
  <path fill="#34A853" d="M272 544.3c72.9 0 134.1-24 178.8-65.1l-86.9-68c-24.1 16.2-55.1 25.8-91.9 25.8-70.6 0-130.3-47.7-151.7-111.9H31.8v70.6C76.3 486.1 168.8 544.3 272 544.3z"/>
  <path fill="#FBBC05" d="M120.3 325.1c-10.9-32-10.9-66.5 0-98.5V156H31.8C11.4 196.6 0 241.5 0 289.3s11.4 92.7 31.8 133.3l88.5-68z"/>
  <path fill="#EA4335" d="M272 107.7c39.7-.6 77.8 13.6 106.8 39.6l79.8-79.8C423.9 23.2 352.8-.1 272 0 168.8 0 76.3 58.2 31.8 133.3l88.5 68C141.6 137.1 201.3 89.4 272 89.4z"/>
</svg>

